<?xml version="1.0" standalone="no"?>
<!DOCTYPE svg PUBLIC "-//W3C//DTD SVG 20010904//EN"
 "http://www.w3.org/TR/2001/REC-SVG-20010904/DTD/svg10.dtd">
<svg version="1.0" xmlns="http://www.w3.org/2000/svg"
 width="512.000000pt" height="512.000000pt" viewBox="0 0 512.000000 512.000000"
 preserveAspectRatio="xMidYMid meet">
<metadata>
Created by potrace 1.16, written by Peter Selinger 2001-2019
</metadata>
<g transform="translate(0.000000,512.000000) scale(0.100000,-0.100000)"
fill="#45897d" stroke="none">
<path d="M2240 5105 c-444 -55 -852 -220 -1220 -493 -150 -112 -400 -362 -512
-512 -276 -372 -439 -779 -494 -1230 -17 -148 -17 -472 0 -620 55 -451 218
-858 494 -1230 112 -150 362 -400 512 -512 372 -276 779 -439 1230 -494 148
-17 472 -17 620 0 451 55 858 218 1230 494 150 112 400 362 512 512 276 372
439 779 494 1230 17 148 17 472 0 620 -55 451 -218 858 -494 1230 -112 150
-362 400 -512 512 -372 276 -779 439 -1230 494 -143 17 -488 16 -630 -1z m610
-159 c792 -99 1487 -585 1848 -1292 182 -358 262 -692 262 -1094 0 -402 -80
-736 -262 -1094 -328 -643 -946 -1114 -1657 -1262 -286 -59 -676 -59 -962 0
-710 148 -1329 619 -1656 1261 -183 359 -263 692 -263 1095 0 318 52 598 161
872 331 832 1078 1408 1964 1517 116 14 441 12 565 -3z"/>
<path d="M2240 4801 c-418 -63 -812 -236 -1117 -491 -68 -56 -73 -63 -73 -100
0 -50 27 -80 73 -80 26 0 52 15 118 67 249 197 537 338 836 409 324 77 699 73
1017 -11 720 -189 1312 -781 1501 -1501 87 -332 87 -736 0 -1068 -189 -720
-781 -1312 -1501 -1501 -332 -87 -736 -87 -1068 0 -720 189 -1312 781 -1501
1501 -84 318 -88 693 -11 1017 71 299 212 587 409 836 52 66 67 92 67 118 0
46 -30 73 -80 73 -37 0 -44 -5 -100 -72 -261 -313 -436 -719 -494 -1146 -21
-146 -21 -435 -1 -589 132 -1013 935 -1816 1948 -1948 153 -20 441 -20 594 0
1013 132 1816 935 1948 1948 20 153 20 441 0 594 -132 1013 -935 1816 -1948
1948 -161 21 -466 19 -617 -4z"/>
<path d="M2501 4494 c-12 -15 -21 -37 -21 -49 0 -12 9 -34 21 -49 16 -20 29
-26 59 -26 30 0 43 6 59 26 12 15 21 37 21 49 0 12 -9 34 -21 49 -16 20 -29
26 -59 26 -30 0 -43 -6 -59 -26z"/>
<path d="M1562 4247 c-59 -63 2 -154 84 -127 58 19 68 111 15 139 -33 18 -76
13 -99 -12z"/>
<path d="M3457 4259 c-51 -30 -40 -120 17 -139 60 -20 106 14 106 78 0 55 -72
91 -123 61z"/>
<path d="M1712 3987 c-13 -13 -22 -36 -22 -53 0 -21 102 -207 345 -627 l344
-597 -24 -52 c-45 -96 -28 -185 47 -260 26 -27 54 -48 63 -48 13 0 15 -89 15
-849 0 -843 0 -848 21 -875 29 -37 89 -37 118 0 21 27 21 32 21 875 0 760 2
849 15 849 9 0 37 21 63 48 73 72 91 164 51 252 -38 83 -102 128 -197 139
l-54 6 -343 595 c-189 327 -351 600 -361 607 -29 21 -78 16 -102 -10z"/>
<path d="M872 3557 c-59 -63 2 -154 84 -127 58 19 68 111 15 139 -33 18 -76
13 -99 -12z"/>
<path d="M4147 3569 c-51 -30 -40 -120 17 -139 60 -20 106 14 106 78 0 55 -72
91 -123 61z"/>
<path d="M626 2619 c-37 -29 -37 -89 0 -118 15 -12 37 -21 49 -21 12 0 34 9
49 21 20 16 26 29 26 59 0 30 -6 43 -26 59 -15 12 -37 21 -49 21 -12 0 -34 -9
-49 -21z"/>
<path d="M4396 2619 c-37 -29 -37 -89 0 -118 15 -12 37 -21 49 -21 12 0 34 9
49 21 37 29 37 89 0 118 -15 12 -37 21 -49 21 -12 0 -34 -9 -49 -21z"/>
<path d="M893 1690 c-47 -19 -58 -92 -20 -128 25 -24 66 -28 98 -11 52 27 43
119 -13 138 -36 13 -36 13 -65 1z"/>
<path d="M4158 1689 c-52 -20 -58 -112 -9 -138 55 -30 121 6 121 66 0 58 -55
93 -112 72z"/>
<path d="M1583 1000 c-47 -19 -58 -92 -20 -128 25 -24 66 -28 98 -11 52 27 43
119 -13 138 -36 13 -36 13 -65 1z"/>
<path d="M3468 999 c-52 -20 -58 -112 -9 -138 55 -30 121 6 121 66 0 58 -55
93 -112 72z"/>
</g>
</svg>
